<svg xmlns="http://www.w3.org/2000/svg" xmlns:xlink="http://www.w3.org/1999/xlink" viewBox="0 0 720 720"><defs><linearGradient id="a"><stop offset="0" stop-color="#ff9500"/><stop offset="1" stop-color="#fcee21"/></linearGradient><linearGradient xlink:href="#a" id="b" x1="199.014" y1="233.81" x2="526.805" y2="448.459" gradientUnits="userSpaceOnUse"/></defs><path d="M427.81 486.7c26.377-14.827 47.384-35.512 62.321-59.506a154.927 154.927 0 01-13.456 8.501c-73.796 41.482-167.25 15.285-208.73-58.511s-15.285-167.25 58.511-208.73a155.038 155.038 0 0114.257-7.077c-28.262.289-56.853 7.483-83.23 22.309-83.675 47.034-113.38 153-66.344 236.67s153 113.38 236.67 66.35z" fill="url(#b)" stroke="#f48a00" stroke-width="3"/><path fill="#fcee26" stroke="#bdb003" d="M341.46 327.94l27.16-3.94 12.16-24.62L392.92 324l27.17 3.94-19.66 19.17 4.64 27.05-24.29-12.77-24.3 12.77 4.64-27.05z"/><path fill="#fcee21" stroke="#bdb003" d="M408.04 266.072l4.421-8.964 4.421 8.964 9.89 1.436-7.156 6.976 1.687 9.847-8.842-4.651-8.842 4.65 1.687-9.846-7.156-6.976z" stroke-width=".718"/><path fill="#fcee21" stroke="#bdb003" d="M326.858 258.886l2.35-13.72-9.96-9.72 13.77-2 6.17-12.49 6.16 12.49 13.78 2-9.98 9.72 2.36 13.72-12.32-6.48z"/></svg>