<svg data-name="Layer 1" xmlns="http://www.w3.org/2000/svg" width="809.164" height="657.277"><path d="M692.51 601.237v49.04a7.008 7.008 0 01-7 7h-556a7.015 7.015 0 01-7-7v-62.12c.66-.7 1.32-1.39 2-2.08a384.975 384.975 0 01566 12.88c.68.75 1.34 1.52 2 2.28z" fill="#f9a826"/><path d="M509.01 63.267q-.84-.51-1.68-.99h-58.44c-.42.66-.82 1.33-1.21 2h63.01c-.56-.34-1.12-.67-1.68-1.01zm-386.5 197.47v14.9c.25.02.51.02.76.03l-.5 28.64-.26-.14v2.82l.21.11-.21 12.01v41.4h2v-106.52q-.84 3.24-2 6.75zm386.5-197.47q-.84-.51-1.68-.99h-58.44c-.42.66-.82 1.33-1.21 2h63.01c-.56-.34-1.12-.67-1.68-1.01zm176.5-.99h-556a7.008 7.008 0 00-7 7v581a7.015 7.015 0 007 7h556a7.008 7.008 0 007-7v-581a7.008 7.008 0 00-7-7zm5 588a5.002 5.002 0 01-5 5h-556a5.002 5.002 0 01-5-5v-581a5.008 5.008 0 015-5h556a5.008 5.008 0 015 5z" fill="#3f3d56"/><path d="M353.039 578.694l-19.832.548a13.812 13.812 0 01-8.486-2.38c-2.154-1.601-3.142-3.767-2.708-5.942l3.902-19.613c.736-3.7 5.27-6.497 10.78-6.649l10.953-.302c5.51-.152 10.191 2.39 11.13 6.044l4.979 19.368c.552 2.147-.314 4.364-2.376 6.083a13.812 13.812 0 01-8.342 2.843zm120.631-.56l-19.833.547a13.812 13.812 0 01-8.486-2.379c-2.153-1.602-3.141-3.767-2.708-5.942l3.903-19.613c.735-3.7 5.27-6.497 10.78-6.65l10.952-.302c5.51-.152 10.192 2.39 11.13 6.044l4.98 19.368c.552 2.148-.315 4.365-2.377 6.083a13.812 13.812 0 01-8.342 2.844zM284.174 411.63a4.331 4.331 0 011.595-8.308l225.467-6.226a4.33 4.33 0 014.45 4.208 4.336 4.336 0 01-4.21 4.449l-225.468 6.225a4.307 4.307 0 01-1.834-.349z" fill="#3f3d56"/><path fill="#e6e6e6" d="M302.933 338.768l64.45-1.78 6.009 217.597-64.45 1.78z"/><path fill="#ccc" d="M369.018 333.079l-12.389 33.749.011 153.759 15.096 4.329-2.718-191.837z"/><path d="M334.822 280.122c-12.057.342-21.256 21.209-21.035 29.352l.407 14.741 43.659-1.205-.407-14.742c-.229-8.142-10.566-28.47-22.624-28.146zM303.77 428.88a8.51 8.51 0 01-8.731-8.261l-.663-23.991a8.5 8.5 0 1116.994-.47l.662 23.991a8.51 8.51 0 01-8.262 8.732z" fill="#3f3d56"/><path fill="#3f3d56" d="M320.125 339.284l-.305-15.855 4.158-.103.305 15.804 3.769 230.346-4.159.115"/><path d="M374.773 376.36l-74.738 2.065c-7.139-8.706-7.787-45.793 7.11-52.851l5.843-9.92 45.042-2.2 5.265 10.446c7.41 6.305 11.231 43.161 11.478 52.46z" fill="#e6e6e6"/><path d="M346.643 358.573l-18.9.522c-3.647.101-6.748-4.63-6.912-10.546s2.672-10.811 6.32-10.912l18.9-.522c3.646-.1 6.747 4.631 6.91 10.547s-2.671 10.81-6.318 10.911z" fill="#f9a826"/><path fill="#e6e6e6" d="M310.043 465.568l-38.959 27.52-6.806 62.05 45.448-15.185.317-74.385zm117.301-129.465l64.45-1.78 6.009 217.597-64.45 1.78z"/><path fill="#ccc" d="M428.888 333.806l13.261 33.416 3.979 153.708-14.979 4.719-2.261-191.843z"/><ellipse cx="524.024" cy="262.584" rx="8.447" ry="11.327" fill="#e6e6e6"/><ellipse cx="568.183" cy="428.884" rx="8.447" ry="11.327" fill="#e6e6e6"/><ellipse cx="239.471" cy="397.094" rx="8.447" ry="11.327" fill="#e6e6e6"/><path d="M457.975 277.492c-12.057.342-21.257 21.209-21.036 29.352l.407 14.741 43.66-1.205-.408-14.742c-.228-8.143-10.565-28.47-22.623-28.146zm12.484 66.755l-.305-15.855 4.158-.104.305 15.805 3.769 230.346-4.159.115" fill="#3f3d56"/><path d="M497.926 373.73l-74.739 2.064c-1.303-7.876.383-44.632 7.111-52.85l5.842-9.92 45.043-2.2 5.264 10.445c13.299 1.084 17.95 37.204 11.479 52.462z" fill="#e6e6e6"/><path d="M469.887 359.254l-18.9.522c-3.647.1-6.769-5.374-6.957-12.202s2.626-12.466 6.273-12.567l18.9-.522c3.647-.1 6.768 5.374 6.957 12.202s-2.626 12.466-6.273 12.567z" fill="#f9a826"/><path fill="#e6e6e6" d="M494.978 449.662l37.663 29.268 3.966 62.297-44.706-17.244 3.077-74.321z"/><path d="M484.46 161.12c-40.413 0-86.857-44.845-127.949-23.538-124.415 64.514-107.288-43.44-143.032-83.589l1.174-2.353c27.06 103.218 51.543 267.692 142.398 83.204 22.76-46.213 97.456 25.22 141.424 23.113l.076 2.83q-6.965.335-14.09.334zm96.997 6.347c-32.215 24.4-96.316 16.691-116.208 58.487-60.228 126.545-111.754 30.148-164.488 19.723l-.485-2.584c52.79 4.378 109.414-2.416 163.75-19.648 49.105-15.571 92.915-38.735 126.693-66.962l1.769 2.21q-5.35 4.473-11.03 8.774z" fill="#f2f2f2"/><ellipse cx="231.024" cy="150.584" rx="8.447" ry="11.327" fill="#e6e6e6"/><ellipse cx="493.024" cy="58.584" rx="8.447" ry="11.327" fill="#e6e6e6"/><ellipse cx="222.577" cy="296.007" rx="8.447" ry="11.327" fill="#e6e6e6"/><path d="M308.362 207.63c-3.862 2.572-7.814-3.552-3.878-6.011 3.862-2.573 7.815 3.551 3.878 6.01zm143-201c-3.862 2.572-7.814-3.552-3.878-6.011 3.862-2.573 7.815 3.551 3.878 6.01zm84.279 119.171l-2.457-.539.538-2.458-1.638-.359-.539 2.458-2.457-.538-.359 1.638 2.457.539-.538 2.457 1.638.359.539-2.458 2.457.539.359-1.638z" fill="#e6e6e6"/><circle cx="310.427" cy="32.737" r="10.702" fill="#ff6584"/><path d="M388.708 19.19c-12.058.343-21.257 21.21-21.036 29.352l.407 14.742 43.66-1.206-.408-14.741c-.228-8.143-10.565-28.47-22.623-28.147zm25.997 558.22l-19.833.547a13.812 13.812 0 01-8.485-2.38c-2.154-1.601-3.142-3.767-2.709-5.942l3.903-19.612c.735-3.7 5.27-6.498 10.78-6.65l10.952-.302c5.51-.152 10.192 2.39 11.13 6.044l4.98 19.368c.552 2.147-.315 4.364-2.377 6.083a13.812 13.812 0 01-8.341 2.843z" fill="#3f3d56"/><path fill="#e6e6e6" d="M359.099 114.815l64.45-1.78 12.145 439.85-64.45 1.779z"/><path fill="#3f3d56" d="M397.76 325.949l-.305-15.855 4.158-.103.305 15.804 3.769 230.346-4.159.115"/><path d="M436.237 153.292l-87.326 2.411c-1.522-9.203.447-52.15 8.309-61.752l2.154-11.462 60.297-1.665 3.154 11.17c8.659 7.369 13.124 50.432 13.412 61.298z" fill="#e6e6e6"/><path d="M421.577 82.176l-62.223 1.718c-2.297.064-4.193-1.142-4.236-2.693a1.952 1.952 0 01.097-.658l9.665-29.776c.414-1.275 2.061-2.211 3.984-2.264l41.264-1.14c1.923-.053 3.62.791 4.104 2.042L425.525 78.6c.577 1.493-.757 3.047-2.98 3.47a6.08 6.08 0 01-.968.105z" fill="#e6e6e6"/><path d="M365.492 323.926a7.626 7.626 0 01-1.58-.915 5.604 5.604 0 01-2.38-4.321l-2.26-81.878c-.094-3.389 3.225-6.24 7.397-6.356l55.703-1.538c4.173-.116 7.643 2.549 7.737 5.938l2.26 81.878a5.603 5.603 0 01-2.136 4.446 8.506 8.506 0 01-5.261 1.91l-55.703 1.538a8.92 8.92 0 01-3.777-.702z" fill="#3f3d56"/><path d="M401.145 76.907l-18.9.522c-3.648.1-6.732-4.02-6.874-9.184s2.71-9.45 6.356-9.55l18.9-.522c3.647-.1 6.731 4.02 6.874 9.184s-2.71 9.45-6.356 9.55z" fill="#f9a826"/><path d="M493.39 423.566a8.51 8.51 0 01-8.731-8.262l-.663-23.991a8.5 8.5 0 0116.994-.47l.662 23.992a8.51 8.51 0 01-8.262 8.731zm-310.44 68.029c-10.246 0-16.907-2.546-19.855-7.607-5.814-9.98 3.923-27.494 28.94-52.051l2.103 2.14c-23.24 22.813-33.343 40.001-28.451 48.4 3.096 5.313 12.308 7.218 26.648 5.505 14.236-1.7 33.1-6.765 56.072-15.055 47.291-17.067 106.623-45.856 167.065-81.064 60.44-35.207 114.75-72.617 152.927-105.335 7.332-6.286 13.987-12.333 19.779-17.972a196.96 196.96 0 0020.976-23.377c8.563-11.627 11.453-20.581 8.358-25.895-5.17-8.874-26.888-8.04-61.157 2.353l-.87-2.87c36.766-11.15 58.507-11.484 64.619-.992 3.797 6.518.926 16.337-8.534 29.183a199.923 199.923 0 01-21.3 23.748c-5.836 5.683-12.538 11.772-19.92 18.1-38.309 32.833-92.776 70.353-153.368 105.648-60.594 35.297-120.1 64.168-167.556 81.295-23.185 8.367-42.274 13.486-56.735 15.211a82.695 82.695 0 01-9.74.635z" fill="#3f3d56"/><path fill="#e6e6e6" d="M423.268 139.256l37.662 29.268 3.966 62.297-44.706-17.244 3.078-74.321zm-56.896 0l-37.662 29.268-3.966 62.297 44.706-17.244-3.078-74.321z"/><path fill="#3f3d56" d="M387.625 93.825l-.305-15.855 4.158-.103.305 15.805 3.769 30.346-4.159.115"/><ellipse cx="389.536" cy="336.703" rx="7.557" ry="5.257" transform="rotate(-21.161 -33.832 793.75)" fill="#e6e6e6"/><ellipse cx="438.539" cy="330.417" rx="7.557" ry="5.257" transform="rotate(-21.161 15.172 787.463)" fill="#e6e6e6"/><ellipse cx="385.286" cy="378.511" rx="7.557" ry="5.257" transform="rotate(-21.161 -38.082 835.557)" fill="#e6e6e6"/><ellipse cx="371.907" cy="397.208" rx="3.322" ry="4.776" transform="rotate(-13.316 -247.483 1165.188)" fill="#e6e6e6"/><ellipse cx="371.616" cy="428.43" rx="3.322" ry="4.776" transform="rotate(-13.316 -247.775 1196.41)" fill="#e6e6e6"/><ellipse cx="414.625" cy="363.761" rx="3.322" ry="4.776" transform="rotate(-13.316 -204.766 1131.742)" fill="#e6e6e6"/><ellipse cx="388.816" cy="357.494" rx="3.322" ry="4.776" transform="rotate(-13.316 -230.575 1125.474)" fill="#e6e6e6"/><ellipse cx="416.171" cy="328.743" rx="3.322" ry="4.776" transform="rotate(-13.316 -203.219 1096.724)" fill="#e6e6e6"/><ellipse cx="818.548" cy="477.578" rx="7.557" ry="5.257" transform="rotate(-14.913 255.64 1155.966)" fill="#e6e6e6"/><ellipse cx="769.152" cy="478.493" rx="7.557" ry="5.257" transform="rotate(-14.913 206.243 1156.88)" fill="#e6e6e6"/><ellipse cx="827.323" cy="436.481" rx="7.557" ry="5.257" transform="rotate(-14.913 264.415 1114.869)" fill="#e6e6e6"/><ellipse cx="842.658" cy="419.351" rx="3.322" ry="4.776" transform="rotate(-7.068 -241.991 1925.33)" fill="#e6e6e6"/><ellipse cx="846.346" cy="388.346" rx="3.322" ry="4.776" transform="rotate(-7.068 -238.303 1894.325)" fill="#e6e6e6"/><ellipse cx="796.554" cy="447.95" rx="3.322" ry="4.776" transform="rotate(-7.068 -288.096 1953.93)" fill="#e6e6e6"/><ellipse cx="821.527" cy="456.989" rx="3.322" ry="4.776" transform="rotate(-7.068 -263.122 1962.968)" fill="#e6e6e6"/><ellipse cx="791.205" cy="482.591" rx="3.322" ry="4.776" transform="rotate(-7.068 -293.445 1988.57)" fill="#e6e6e6"/><path d="M718.651 523.237q-19.368 0-42.457-1.464c-79.613-5.055-182.737-22.632-290.376-49.492-107.637-26.86-206.93-59.794-279.585-92.734C70.84 363.5 43.677 348.31 25.498 334.399 6.25 319.672-2.168 306.835.474 296.247c5.148-20.63 50.73-25.143 88.064-25.296l.012 3c-51.268.21-81.513 8.387-85.165 23.022-4.652 18.64 33.287 47.74 104.087 79.841 72.495 32.869 171.605 65.74 279.073 92.557 107.467 26.816 210.401 44.363 289.84 49.408 77.578 4.928 124.743-2.937 129.394-21.578 3.862-15.476-21.598-38.275-71.69-64.198l1.38-2.664c36.397 18.836 78.645 45.851 73.222 67.589-2.643 10.589-16.106 17.965-40.016 21.923-13.629 2.255-30.37 3.386-50.024 3.386z" fill="#f9a826"/></svg>